<?xml version="1.0" encoding="utf-8"?>
<!-- Generator: Adobe Illustrator 24.0.2, SVG Export Plug-In . SVG Version: 6.00 Build 0)  -->
<svg version="1.1" id="Layer_1" xmlns="http://www.w3.org/2000/svg" xmlns:xlink="http://www.w3.org/1999/xlink" x="0px" y="0px"
	 viewBox="0 0 256.7 53.6" style="enable-background:new 0 0 256.7 53.6;" xml:space="preserve">
<style type="text/css">
	.st0{fill:#FFFFFF;}
	.st1{fill:#C1272D;}
</style>
<g>
	<path class="st0" d="M19.6,22.8h-3.2c-2.4,0-4.4,0.9-6.1,2.7C8.1,27.8,7,31.1,7,35.5c0,6.3,1.8,10.3,5.3,12c1.1,0.5,2.4,0.8,4,0.8
		c2.2,0,4.8-0.9,7.9-2.7l2.4-1.5c0.1-0.1,0.3-0.1,0.6-0.1s0.8,0.4,1.5,1.3c0.6,0.9,1,1.6,1,2.2c0,0.6-0.1,1-0.4,1.2
		c-4.4,3.3-9,4.9-13.9,4.9c-4.9,0-8.7-1.6-11.4-4.9c-2.6-3.2-4-7.6-4-13.2c0-5.5,1.6-9.8,4.8-12.9C8,19.6,12.1,18,17.1,18
		c5,0,8.5,1.1,10.4,3.3c0.8,0.9,1.1,1.9,1.1,3.2s-0.5,2.4-1.4,3.3c-0.9,0.9-2,1.4-3.3,1.4s-2.4-0.4-3.3-1.3
		c-0.9-0.9-1.4-1.7-1.4-2.6C19.3,24.5,19.4,23.7,19.6,22.8z"/>
	<path class="st0" d="M44.4,22.8c0.3,0.6,0.4,1.4,0.4,2.5c0,1.1-0.4,2.1-1.3,2.9s-2,1.3-3.3,1.4c-2.1,0-3.6-0.9-4.3-2.8
		c-0.2-0.6-0.3-1.3-0.3-2.1c0-1.6,0.9-3.1,2.6-4.2c2.5-1.7,6.4-2.5,11.6-2.5c4.2,0,7.2,1.3,9.2,3.8c1.6,2,2.4,4.9,2.4,8.6v17.7H67
		c0.6,0,0.9,0.7,0.9,2c0,0.6-0.1,1.2-0.3,1.8c-0.2,0.6-0.6,0.9-1.1,1c-1.3,0.4-3.1,0.5-5.5,0.5c-2.4,0-3.7,0-4-0.1
		c-0.3-0.1-0.6-0.3-0.9-0.6c-0.3-0.3-0.7-1-1.1-2.2c-2.8,2-6,3-9.7,3c-3.7,0-6.5-0.9-8.5-2.7c-1.9-1.8-2.9-4.1-2.9-6.9
		c0-3.6,1.2-6.3,3.6-8.1c2.4-1.8,5.3-2.8,8.7-2.8h8.4c0-3.8-0.3-6.3-0.9-7.4c-0.6-1.1-1.4-1.9-2.3-2.3c-0.9-0.4-2-0.6-3.5-0.6H44.4z
		 M46.2,48.3c2.9,0,5.7-1.1,8.4-3.4v-6.7h-7c-2.2,0-3.7,0.3-4.5,0.9c-1.6,1.1-2.4,2.4-2.4,3.8c0,2.7,1.1,4.4,3.3,5.1
		C44.8,48.2,45.5,48.3,46.2,48.3z"/>
	<path class="st0" d="M69.8,24c-0.9,0-1.4-0.9-1.4-2.7c0-1.1,0.3-1.7,0.9-1.9c1.3-0.5,3-0.9,5.1-1.1s3.5-0.3,4.1-0.3h0.9
		c1,0,1.6,0.2,1.9,0.5c0.3,0.3,0.5,1.4,0.5,3.2v0.6c3.4-1.9,6.6-3.2,9.4-3.9c0.9-0.2,2.1-0.3,3.5-0.3s2.8,0.3,4.2,0.9
		c1.4,0.6,2.5,1.5,3.3,2.6c1.5,2,2.2,5.2,2.2,9.6v17h5.3c0.6,0,0.9,0.6,0.9,1.9c0,1.2-0.2,2-0.5,2.4c-0.3,0.4-0.6,0.5-0.9,0.5H93.7
		c-0.6,0-0.9-0.6-0.9-1.9c0-1.2,0.2-2,0.5-2.4c0.3-0.4,0.6-0.5,0.9-0.5c2.4,0,3.6-0.5,3.6-1.5V36.5c0-4.4-0.3-7.3-0.8-8.7
		c-0.5-1.4-1.1-2.4-1.9-2.9S93.2,24,91.8,24c-2.5,0-5.7,1.5-9.4,4.4v19.7h5.7c0.6,0,0.9,0.6,0.9,1.9c0,1.2-0.2,2-0.5,2.4
		c-0.3,0.4-0.6,0.5-0.9,0.5H70.3c-0.6,0-0.9-0.6-0.9-1.9c0-1.2,0.2-2,0.5-2.4c0.3-0.4,0.6-0.5,0.8-0.5h0.4c2.6,0,4.1-0.3,4.5-0.8
		c0.1-0.2,0.2-0.4,0.2-0.7V24H69.8z"/>
	<path class="st0" d="M113.9,24c-0.9,0-1.4-0.9-1.4-2.7c0-1.1,0.3-1.7,0.9-1.9c2-0.8,5.9-1.2,11.6-1.3h0c1,0,1.5,1,1.5,2.9v27.2h5.7
		c0.6,0,0.9,0.6,0.9,1.9c0,1.2-0.2,2-0.5,2.4c-0.3,0.4-0.6,0.5-0.9,0.5h-17.4c-0.6,0-0.9-0.6-0.9-1.9c0-1.2,0.2-2,0.5-2.4
		c0.3-0.4,0.6-0.5,0.8-0.5h0.4c2.7,0,4.2-0.3,4.5-0.8c0.1-0.2,0.2-0.4,0.2-0.7V24H113.9z M122.5,9.4c-2.1,0-3.6-0.9-4.3-2.8
		c-0.2-0.6-0.3-1.2-0.3-1.9c0-2.2,0.9-3.6,2.8-4.4c0.6-0.2,1.2-0.3,1.8-0.3c1.3,0,2.4,0.5,3.3,1.4c0.9,0.9,1.4,2,1.4,3.4
		c0,1.3-0.4,2.5-1.3,3.3S123.8,9.4,122.5,9.4z"/>
	<path class="st0" d="M145.8,48.3h3.9c3.2,0,5.3-1,6.4-2.9c0.3-0.6,0.5-1.2,0.5-1.9c0-1.3-0.6-2.4-1.8-3.1c-1.2-0.8-3.1-1.5-5.6-2.3
		c-2.5-0.8-4.4-1.4-5.7-2c-1.3-0.6-2.4-1.2-3.4-2c-2-1.6-2.9-3.9-2.9-6.8c0-4.2,2.4-7.1,7.1-8.5c1.8-0.5,3.5-0.8,5.2-0.8
		c3.7,0,6.6,0.5,8.8,1.5c2.7,1.3,4.1,3.1,4.1,5.4c0,1.3-0.4,2.4-1.3,3.3s-2,1.3-3.4,1.4c-2.1,0-3.6-0.9-4.4-2.8
		c-0.2-0.6-0.3-1-0.3-1.4c0-0.4,0.1-1.2,0.4-2.6H150c-1.8,0-3.2,0.3-4.1,1c-1.6,1.1-2.4,2.3-2.4,3.7c0,1.8,1.6,3.2,4.8,4.3l2.6,0.9
		c4.4,1.5,7.2,2.7,8.5,3.7c2.4,2,3.6,4.4,3.6,7.5c0,3-1.2,5.4-3.5,7.1c-2.3,1.7-5.2,2.6-8.8,2.6c-3.5,0-6.5-0.4-8.8-1.3
		c-3.5-1.3-5.3-3.2-5.3-5.5c0-1.5,0.4-2.6,1.4-3.5c0.9-0.9,2-1.3,3.4-1.3c1.3,0,2.4,0.4,3.3,1.3c0.9,0.9,1.4,1.9,1.4,3
		C146,47.3,145.9,48,145.8,48.3z"/>
	<path class="st0" d="M166.5,24c0-3.5,0.4-5.3,1.3-5.3h0.5c3.5,0,5.3-0.5,5.4-1.5l1.5-7.6c0.3-1.3,1.8-1.9,4.4-1.9v10.9h9.2
		c0.6,0,0.8,0.7,0.8,2c0,1.3-0.3,2.3-0.8,3c-0.2,0.2-0.4,0.3-0.7,0.3h-8.5v20.2c0,2.6,0.8,3.8,2.3,3.8c1.7,0,2.9-0.1,3.6-0.4
		c0.7-0.3,1.3-0.4,1.7-0.4s0.8,0.3,1.2,0.9c0.4,0.6,0.6,1.2,0.6,1.9c0,0.7-0.2,1.1-0.6,1.3c-2.9,1.5-5.7,2.3-8.4,2.3
		c-4.7,0-7-3.2-7-9.5V24H166.5z"/>
	<path class="st0" d="M208.8,53.6c-5,0-8.9-1.6-11.5-4.9c-2.6-3.3-4-7.7-3.9-13.2c0-5.5,1.7-9.8,4.9-12.9c3.2-3,7.2-4.6,11.8-4.6
		h0.1c4.2,0,7.5,1.3,9.8,4c2.3,2.7,3.5,6.5,3.5,11.5c0,1.1-0.5,2-1.5,2.8c-1,0.8-2.2,1.1-3.6,1.1h-18c0.4,5.3,2.3,8.8,5.6,10.3
		c1,0.5,2.2,0.7,3.3,0.7s2.4-0.2,3.7-0.6s2.8-1.1,4.5-2.2c1.7-1.1,2.7-1.6,3-1.6s0.6,0.1,0.9,0.4c0.3,0.3,0.7,0.7,1.1,1.3
		c0.4,0.6,0.7,1.2,0.7,1.8c0,0.6-0.1,1-0.4,1.2C218.5,52,213.9,53.6,208.8,53.6z M216.5,32.2c0-6-2.2-9-6.7-9
		c-2.3,0-4.4,0.8-6.3,2.4c-1.9,1.6-3,3.8-3.1,6.6H216.5z"/>
	<path class="st0" d="M251.3,18l0.8,0c0.5,0,1,0.2,1.7,0.5c0.7,0.4,1.3,0.9,1.9,1.6c0.6,0.7,0.9,1.7,0.9,3.1c0,1.3-0.5,2.4-1.4,3.3
		c-1,0.9-2,1.3-3.2,1.3c-1.2,0-2.2-0.4-3.1-1.4c-0.8-0.9-1.3-1.9-1.3-3c-1.3,0.6-2.3,1.3-3,2.1c-0.7,0.8-1.3,1.5-1.7,2.2l-1.5,2.3
		v17.9h8.3c0.5,0,0.8,0.6,0.8,1.9c0,1.3-0.2,2.1-0.5,2.4c-0.3,0.4-0.6,0.5-0.9,0.5h-19.9c-0.6,0-1-0.6-0.9-1.9
		c0-1.2,0.3-2.1,0.9-2.7c0.2-0.2,0.8-0.2,1.9-0.2c2.4,0,3.7-0.5,3.7-1.5V24.1h-6c-0.9,0-1.3-0.7-1.3-2.2s0.3-2.3,0.9-2.5
		c1.2-0.5,2.9-0.8,4.9-1c2.1-0.2,3.4-0.3,4-0.3h1.7c0.8,0,1.3,0.1,1.5,0.5c0.2,0.4,0.2,1,0.2,2l0,1.4c0,0.3,0,0.5,0,0.8s0,0.5,0,0.8
		C244.5,19.9,248.1,18,251.3,18z"/>
</g>
<path class="st1" d="M122.5,9.4c-2.1,0-3.6-0.9-4.3-2.8c-0.2-0.6-0.3-1.2-0.3-1.9c0-2.2,0.9-3.6,2.8-4.4c0.6-0.2,1.2-0.3,1.8-0.3
	c1.3,0,2.4,0.5,3.3,1.4c0.9,0.9,1.4,2,1.4,3.4c0,1.3-0.4,2.5-1.3,3.3S123.8,9.4,122.5,9.4z"/>
</svg>
