<?xml version="1.0" encoding="utf-8"?>
<!-- Generator: Adobe Illustrator 24.0.2, SVG Export Plug-In . SVG Version: 6.00 Build 0)  -->
<svg version="1.1" id="Layer_1" xmlns="http://www.w3.org/2000/svg" xmlns:xlink="http://www.w3.org/1999/xlink" x="0px" y="0px"
	 viewBox="0 0 512 512" style="enable-background:new 0 0 512 512;" xml:space="preserve">
<style type="text/css">
	.st0{fill:#4C4A40;}
	.st1{fill:#2E2C27;}
	.st2{fill:#181B1F;}
	.st3{fill:#ED1C24;}
	.st4{fill:#A51620;}
	.st5{fill:#787465;}
	.st6{fill:#696453;}
</style>
<path class="st0" d="M497,89.1H257.3v392.4h26.5c15.1,0,28.5-9.7,33.2-24l25.7-78H497c8.3,0,15-6.7,15-15V104
	C512,95.8,505.3,89.1,497,89.1z M332.2,184c0,8.3-6.7,15-15,15s-15-6.7-15-15v-20c0-8.3,6.7-15,15-15s15,6.7,15,15V184z M392.1,184
	c0,8.3-6.7,15-15,15c-8.3,0-15-6.7-15-15v-20c0-8.3,6.7-15,15-15c8.3,0,15,6.7,15,15V184z M452.1,184c0,8.3-6.7,15-15,15
	c-8.3,0-15-6.7-15-15v-20c0-8.3,6.7-15,15-15c8.3,0,15,6.7,15,15V184z"/>
<path class="st1" d="M59.9,74.1V15c0-8.3,6.7-15,15-15h122.4c8.3,0,15,6.7,15,15v59.1H59.9z"/>
<path class="st2" d="M197.3,0h-61.2v74.1h76.2V15C212.3,6.7,205.6,0,197.3,0z"/>
<path class="st3" d="M257.3,511.4H15c-8.3,0-15-6.7-15-15V74.1c0-8.3,6.7-15,15-15h242.3c8.3,0,15,6.7,15,15v422.4
	C272.3,504.7,265.6,511.4,257.3,511.4z"/>
<path class="st4" d="M257.3,59.1H136.1v452.3h121.1c8.3,0,15-6.7,15-15V74.1C272.3,65.8,265.6,59.1,257.3,59.1z"/>
<path class="st5" d="M152.4,134H0v302.5h152.4c8.3,0,15-6.7,15-15V149C167.4,140.7,160.7,134,152.4,134z"/>
<g>
	<path class="st6" d="M152.4,134h-16.3v302.5h16.3c8.3,0,15-6.7,15-15V149C167.4,140.7,160.7,134,152.4,134z"/>
	<path class="st6" d="M257.3,59.1H15c-8.3,0-15,6.7-15,15v15h272.3v-15C272.3,65.8,265.6,59.1,257.3,59.1z"/>
	<path class="st6" d="M0,481.5v15c0,8.3,6.7,15,15,15h242.3c8.3,0,15-6.7,15-15v-15H0z"/>
</g>
<path class="st0" d="M257.3,59.1H136.1v30h136.1v-15C272.3,65.8,265.6,59.1,257.3,59.1z"/>
<path class="st0" d="M136.1,511.4h121.1c8.3,0,15-6.7,15-15v-15H136.1V511.4z"/>
</svg>
